<svg width="48" height="48" viewBox="0 0 48 48" fill="none" xmlns="http://www.w3.org/2000/svg">
  <!-- Eagle body -->
  <ellipse cx="24" cy="28" rx="8" ry="12" fill="#8B4513" stroke="#654321" stroke-width="1"/>
  
  <!-- Eagle head -->
  <circle cx="24" cy="16" r="6" fill="#D2B48C" stroke="#B8860B" stroke-width="1"/>
  
  <!-- Eagle beak -->
  <polygon points="24,13 28,16 24,19" fill="#FFD700" stroke="#FFA500" stroke-width="1"/>
  
  <!-- Eagle eyes -->
  <circle cx="22" cy="14" r="1.5" fill="#000"/>
  <circle cx="26" cy="14" r="1.5" fill="#000"/>
  <circle cx="22" cy="14" r="0.5" fill="#FFF"/>
  <circle cx="26" cy="14" r="0.5" fill="#FFF"/>
  
  <!-- Wings spread -->
  <ellipse cx="14" cy="24" rx="10" ry="6" fill="#8B4513" stroke="#654321" stroke-width="1" transform="rotate(-15 14 24)"/>
  <ellipse cx="34" cy="24" rx="10" ry="6" fill="#8B4513" stroke="#654321" stroke-width="1" transform="rotate(15 34 24)"/>
  
  <!-- Wing details -->
  <path d="M6,24 Q14,20 14,28 Q10,26 6,24" fill="#654321"/>
  <path d="M42,24 Q34,20 34,28 Q38,26 42,24" fill="#654321"/>
  
  <!-- Tail feathers -->
  <ellipse cx="24" cy="38" rx="4" ry="8" fill="#8B4513" stroke="#654321" stroke-width="1"/>
  
  <!-- Talons -->
  <circle cx="20" cy="36" r="1" fill="#FFD700"/>
  <circle cx="28" cy="36" r="1" fill="#FFD700"/>
  
  <!-- American flag pattern on chest -->
  <rect x="20" y="24" width="8" height="6" fill="#FF0000" opacity="0.3"/>
  <rect x="20" y="24" width="8" height="1" fill="#FFF" opacity="0.8"/>
  <rect x="20" y="26" width="8" height="1" fill="#FFF" opacity="0.8"/>
  <rect x="20" y="28" width="8" height="1" fill="#FFF" opacity="0.8"/>
  <rect x="20" y="24" width="3" height="3" fill="#0000FF" opacity="0.3"/>
</svg>
