<svg width="32" height="32" viewBox="0 0 32 32" fill="none" xmlns="http://www.w3.org/2000/svg">
  <!-- Enemy ship body -->
  <polygon points="16,2 28,12 28,20 16,30 4,20 4,12" fill="#8B0000" stroke="#A52A2A" stroke-width="1"/>
  
  <!-- Dark center -->
  <polygon points="16,6 24,12 24,18 16,26 8,18 8,12" fill="#2F1B14" stroke="#654321" stroke-width="1"/>
  
  <!-- Menacing eyes -->
  <circle cx="12" cy="12" r="2" fill="#FF0000"/>
  <circle cx="20" cy="12" r="2" fill="#FF0000"/>
  <circle cx="12" cy="12" r="1" fill="#FFF"/>
  <circle cx="20" cy="12" r="1" fill="#FFF"/>
  
  <!-- Angular wings -->
  <polygon points="4,12 2,8 8,10" fill="#654321" stroke="#8B0000" stroke-width="1"/>
  <polygon points="28,12 30,8 24,10" fill="#654321" stroke="#8B0000" stroke-width="1"/>
  
  <!-- Weapon ports -->
  <rect x="8" y="20" width="2" height="4" fill="#FF4500"/>
  <rect x="22" y="20" width="2" height="4" fill="#FF4500"/>
  
  <!-- Danger stripes -->
  <rect x="6" y="14" width="20" height="1" fill="#FFFF00" opacity="0.7"/>
  <rect x="6" y="16" width="20" height="1" fill="#FFFF00" opacity="0.7"/>
</svg>
