<svg width="800" height="600" viewBox="0 0 800 600" fill="none" xmlns="http://www.w3.org/2000/svg">
  <!-- American flag inspired background -->
  <defs>
    <radialGradient id="spaceGradient" cx="50%" cy="50%" r="50%">
      <stop offset="0%" style="stop-color:#1e3a8a;stop-opacity:1" />
      <stop offset="50%" style="stop-color:#0f172a;stop-opacity:1" />
      <stop offset="100%" style="stop-color:#000000;stop-opacity:1" />
    </radialGradient>
  </defs>
  
  <!-- Space background -->
  <rect width="800" height="600" fill="url(#spaceGradient)"/>
  
  <!-- Red stripes -->
  <rect x="0" y="0" width="800" height="46" fill="#B22234" opacity="0.3"/>
  <rect x="0" y="92" width="800" height="46" fill="#B22234" opacity="0.3"/>
  <rect x="0" y="184" width="800" height="46" fill="#B22234" opacity="0.3"/>
  <rect x="0" y="276" width="800" height="46" fill="#B22234" opacity="0.3"/>
  <rect x="0" y="368" width="800" height="46" fill="#B22234" opacity="0.3"/>
  <rect x="0" y="460" width="800" height="46" fill="#B22234" opacity="0.3"/>
  <rect x="0" y="552" width="800" height="48" fill="#B22234" opacity="0.3"/>
  
  <!-- Blue canton area -->
  <rect x="0" y="0" width="320" height="276" fill="#3C3B6E" opacity="0.4"/>
  
  <!-- Stars pattern -->
  <g fill="#FFF" opacity="0.6">
    <!-- Row 1 -->
    <polygon points="32,23 35,32 44,32 37,37 40,46 32,41 24,46 27,37 20,32 29,32" />
    <polygon points="96,23 99,32 108,32 101,37 104,46 96,41 88,46 91,37 84,32 93,32" />
    <polygon points="160,23 163,32 172,32 165,37 168,46 160,41 152,46 155,37 148,32 157,32" />
    <polygon points="224,23 227,32 236,32 229,37 232,46 224,41 216,46 219,37 212,32 221,32" />
    <polygon points="288,23 291,32 300,32 293,37 296,46 288,41 280,46 283,37 276,32 285,32" />
    
    <!-- Row 2 -->
    <polygon points="64,69 67,78 76,78 69,83 72,92 64,87 56,92 59,83 52,78 61,78" />
    <polygon points="128,69 131,78 140,78 133,83 136,92 128,87 120,92 123,83 116,78 125,78" />
    <polygon points="192,69 195,78 204,78 197,83 200,92 192,87 184,92 187,83 180,78 189,78" />
    <polygon points="256,69 259,78 268,78 261,83 264,92 256,87 248,92 251,83 244,78 253,78" />
    
    <!-- Row 3 -->
    <polygon points="32,115 35,124 44,124 37,129 40,138 32,133 24,138 27,129 20,124 29,124" />
    <polygon points="96,115 99,124 108,124 101,129 104,138 96,133 88,138 91,129 84,124 93,124" />
    <polygon points="160,115 163,124 172,124 165,129 168,138 160,133 152,138 155,129 148,124 157,124" />
    <polygon points="224,115 227,124 236,124 229,129 232,138 224,133 216,138 219,129 212,124 221,124" />
    <polygon points="288,115 291,124 300,124 293,129 296,138 288,133 280,138 283,129 276,124 285,124" />
    
    <!-- Row 4 -->
    <polygon points="64,161 67,170 76,170 69,175 72,184 64,179 56,184 59,175 52,170 61,170" />
    <polygon points="128,161 131,170 140,170 133,175 136,184 128,179 120,184 123,175 116,170 125,170" />
    <polygon points="192,161 195,170 204,170 197,175 200,184 192,179 184,184 187,175 180,170 189,170" />
    <polygon points="256,161 259,170 268,170 261,175 264,184 256,179 248,184 251,175 244,170 253,170" />
    
    <!-- Row 5 -->
    <polygon points="32,207 35,216 44,216 37,221 40,230 32,225 24,230 27,221 20,216 29,216" />
    <polygon points="96,207 99,216 108,216 101,221 104,230 96,225 88,230 91,221 84,216 93,216" />
    <polygon points="160,207 163,216 172,216 165,221 168,230 160,225 152,230 155,221 148,216 157,216" />
    <polygon points="224,207 227,216 236,216 229,221 232,230 224,225 216,230 219,221 212,216 221,216" />
    <polygon points="288,207 291,216 300,216 293,221 296,230 288,225 280,230 283,221 276,216 285,216" />
    
    <!-- Row 6 -->
    <polygon points="64,253 67,262 76,262 69,267 72,276 64,271 56,276 59,267 52,262 61,262" />
    <polygon points="128,253 131,262 140,262 133,267 136,276 128,271 120,276 123,267 116,262 125,262" />
    <polygon points="192,253 195,262 204,262 197,267 200,276 192,271 184,276 187,267 180,262 189,262" />
    <polygon points="256,253 259,262 268,262 261,267 264,276 256,271 248,276 251,267 244,262 253,262" />
  </g>
  
  <!-- Scattered stars for space effect -->
  <g fill="#FFF" opacity="0.8">
    <circle cx="400" cy="100" r="1"/>
    <circle cx="500" cy="150" r="0.5"/>
    <circle cx="600" cy="80" r="1"/>
    <circle cx="700" cy="200" r="0.5"/>
    <circle cx="550" cy="300" r="1"/>
    <circle cx="650" cy="350" r="0.5"/>
    <circle cx="480" cy="450" r="1"/>
    <circle cx="720" cy="500" r="0.5"/>
    <circle cx="420" cy="550" r="1"/>
  </g>
</svg>
